<svg xmlns:xlink="http://www.w3.org/1999/xlink" xmlns="http://www.w3.org/2000/svg" viewBox="0 0 50 50" focusable="false" class="chakra-icon css-g32gbx" aria-label="Twitter"><path fill="currentColor" d="M20 40C31.0457 40 40 31.0457 40 20C40 8.9543 31.0457 0 20 0C8.9543 0 0 8.9543 0 20C0 31.0457 8.9543 40 20 40ZM28.9488 15.2216C29.812 15.1184 30.6344 14.8896 31.4 14.5496C30.828 15.4048 30.104 16.156 29.2696 16.7584C29.2776 16.9416 29.2816 17.1256 29.2816 17.3104C29.2816 22.9496 24.9904 29.452 17.1408 29.452C14.7304 29.452 12.488 28.7456 10.5992 27.5352C10.9336 27.5752 11.2736 27.5952 11.6176 27.5952C13.6176 27.5952 15.4576 26.9128 16.9176 25.768C15.0504 25.7336 13.4744 24.4992 12.9312 22.804C13.1912 22.8528 13.4592 22.88 13.7336 22.88C14.1232 22.88 14.5008 22.828 14.8584 22.7304C12.9056 22.3392 11.4352 20.6144 11.4352 18.5464V18.4928C12.0104 18.812 12.6688 19.004 13.368 19.0264C12.2232 18.2616 11.4704 16.9552 11.4704 15.4752C11.4704 14.692 11.6808 13.9592 12.0472 13.3288C14.1528 15.9112 17.2968 17.6104 20.8432 17.788C20.7712 17.4768 20.7328 17.1504 20.7328 16.816C20.7328 14.46 22.6432 12.5488 25 12.5488C26.2272 12.5488 27.336 13.0672 28.1144 13.8968C29.0872 13.7048 30.0008 13.3496 30.8248 12.8608C30.5064 13.8576 29.8304 14.6936 28.9488 15.2216Z"></path></svg>