<svg xmlns:xlink="http://www.w3.org/1999/xlink" xmlns="http://www.w3.org/2000/svg" viewBox="0 0 50 50" focusable="false" class="chakra-icon css-g32gbx" aria-label="Facebook" ><path fill="currentColor" d="M20 40C31.0457 40 40 31.0457 40 20C40 8.9543 31.0457 0 20 0C8.9543 0 0 8.9543 0 20C0 31.0457 8.9543 40 20 40ZM10.4 16.0016C10.4 12.9136 12.9112 10.4 15.9984 10.4H23.9984C27.0864 10.4 29.6 12.9112 29.6 15.9984V23.9984C29.6 27.0864 27.0888 29.6 24.0016 29.6H16.0016C12.9136 29.6 10.4 27.0888 10.4 24.0016V16.0016ZM26.4 14.4C26.4 13.9584 26.0416 13.6 25.6 13.6C25.1584 13.6 24.8 13.9584 24.8 14.4C24.8 14.8416 25.1584 15.2 25.6 15.2C26.0416 15.2 26.4 14.8416 26.4 14.4ZM24.8 20C24.8 17.3528 22.6472 15.2 20 15.2C17.3528 15.2 15.2 17.3528 15.2 20C15.2 22.6472 17.3528 24.8 20 24.8C22.6472 24.8 24.8 22.6472 24.8 20ZM17.7373 17.7373C18.3374 17.1371 19.1513 16.8 20 16.8C20.8487 16.8 21.6626 17.1371 22.2627 17.7373C22.8629 18.3374 23.2 19.1513 23.2 20C23.2 20.8487 22.8629 21.6626 22.2627 22.2627C21.6626 22.8629 20.8487 23.2 20 23.2C19.1513 23.2 18.3374 22.8629 17.7373 22.2627C17.1371 21.6626 16.8 20.8487 16.8 20C16.8 19.1513 17.1371 18.3374 17.7373 17.7373Z"></path></svg>