<?xml version="1.0" encoding="UTF-8"?>
<svg id="Capa_1" data-name="Capa 1" xmlns="http://www.w3.org/2000/svg" viewBox="0 0 1050 1050">
  <path d="m600.78,53.65C539.5,17.88,472.57,0,400,0s-139.5,17.88-200.79,53.65c-61.28,35.77-109.81,84.29-145.57,145.57C17.88,260.5,0,327.43,0,400c0,80.9,22.04,154.34,66.14,220.3,44.1,65.98,101.9,114.76,173.44,146.35-1.4-37.15.86-67.87,6.77-92.18l51.56-217.71c-8.68-17.01-13.02-38.19-13.02-63.54,0-29.51,7.46-54.17,22.39-73.95,14.92-19.8,33.16-29.7,54.69-29.7,17.36,0,30.73,5.72,40.11,17.19,9.38,11.45,14.07,25.87,14.07,43.22,0,10.77-2,23.88-5.99,39.33-4,15.45-9.21,33.33-15.62,53.65-6.42,20.31-11.02,36.54-13.81,48.69-4.87,21.18-.87,39.32,11.98,54.42,12.84,15.11,29.86,22.65,51.04,22.65,37.16,0,67.62-20.65,91.41-61.97,23.78-41.32,35.67-91.49,35.67-150.53,0-45.48-14.67-82.47-44.01-110.94-29.34-28.46-70.24-42.71-122.66-42.71-58.69,0-106.17,18.84-142.45,56.51-36.28,37.68-54.43,82.74-54.43,135.15,0,31.25,8.86,57.48,26.56,78.65,5.9,6.95,7.81,14.4,5.73,22.38-.7,2.09-2.09,7.29-4.17,15.62-2.08,8.33-3.47,13.72-4.17,16.15-2.78,11.12-9.38,14.59-19.8,10.42-26.74-11.11-47.05-30.38-60.94-57.81-13.89-27.43-20.83-59.19-20.83-95.31,0-23.26,3.73-46.53,11.19-69.79,7.46-23.26,19.09-45.74,34.9-67.45,15.79-21.68,34.72-40.88,56.78-57.55,22.05-16.67,48.87-30.03,80.47-40.11,31.59-10.06,65.63-15.1,102.09-15.1,49.3,0,93.58,10.94,132.81,32.81,39.23,21.88,69.19,50.18,89.85,84.9,20.65,34.72,30.99,71.87,30.99,111.46,0,52.08-9.04,98.96-27.08,140.63-18.06,41.67-43.58,74.39-76.57,98.17-33,23.78-70.5,35.67-112.5,35.67-21.18,0-40.98-4.95-59.38-14.85-18.41-9.9-31.08-21.62-38.03-35.16-15.62,61.45-25,98.1-28.13,109.89-6.6,24.66-20.15,53.12-40.63,85.42,37.15,11.11,75,16.66,113.54,16.66,72.57,0,139.5-17.88,200.78-53.64,61.28-35.77,109.81-84.29,145.58-145.58,35.76-61.28,53.65-128.2,53.65-200.78s-17.89-139.49-53.65-200.78c-35.76-61.24-84.29-109.77-145.58-145.53Z"/>
</svg>